# xmcd
#
# Track frame offsets:
#	150
#	15036
#	29074
#	42486
#	60308
#	73501
#	86260
#	104928
#	119496
#	135312
#	149725
#	159868
#
# Disc length: 2336 seconds
# Revision: 0
# Processed by: cddbd v1.5.2PL0 Copyright (c) Steve Scherf et al.
# Submitted via: dBpowerAMP V12.0
#
DISCID=a0091e0c
DTITLE=Rebekah Long - Run Away
DYEAR=2017
DGENRE=Bluegrass
TTITLE0=Georgia Bound
TTITLE1=I've Seen the Light
TTITLE2=Every Time I Fall Asleep
TTITLE3=Honky Cat
TTITLE4=Run Away
TTITLE5=A Place Beyond the Clouds
TTITLE6=My Greatest Shame
TTITLE7=Fishin' on the Cumberland
TTITLE8=Welcome Me Back Home
TTITLE9=The Swimming Song
TTITLE10=Lay Your Isaac Down
TTITLE11=Woodland Street
EXTD=
EXTT0=
EXTT1=
EXTT2=
EXTT3=
EXTT4=
EXTT5=
EXTT6=
EXTT7=
EXTT8=
EXTT9=
EXTT10=
EXTT11=
PLAYORDER=
